<svg id="Camada_1" data-name="Camada 1" xmlns="http://www.w3.org/2000/svg" viewBox="0 0 556.6 51.34"><defs><style>.cls-1{fill:#211915;}</style></defs><path class="cls-1" d="M67.73,396.88a8.91,8.91,0,0,1-.43,2.74,8.29,8.29,0,0,1-1.87,3,12.92,12.92,0,0,1-3.74,2.79,24.34,24.34,0,0,1-6.48,2,52.7,52.7,0,0,1-9.74.8H42a41.79,41.79,0,0,1-10.86-1.25,17.88,17.88,0,0,1-7.11-3.45,14.16,14.16,0,0,1-3.71-4.82,13.56,13.56,0,0,1-1.18-5.7v-1.21a14,14,0,0,1,1.09-5.59,13.44,13.44,0,0,1,3.53-4.73,17.1,17.1,0,0,1,7-3.43,41.71,41.71,0,0,1,10.89-1.25h3.68q22.56,0,22.56,16.05v2H32.38q1.32,5.82,11.46,5.81h.06a27.19,27.19,0,0,0,4.49-.33,13.81,13.81,0,0,0,3-.8,7.09,7.09,0,0,0,1.78-1.05,5.25,5.25,0,0,0,.93-.94,1.74,1.74,0,0,0,.31-.69H67.73v.05ZM43.42,383.66q-9.16,0-10.8,5H54.34q-1.46-5-10.86-5Z" transform="translate(-19.17 -366.2)"/><path class="cls-1" d="M124.59,366.2v41.17H111.2v-4.54a8.17,8.17,0,0,1-1.51,1.36,21.73,21.73,0,0,1-2.89,1.68,20.62,20.62,0,0,1-5,1.58,33.35,33.35,0,0,1-6.7.64h-.78q-10.26,0-15.35-4.29a13.77,13.77,0,0,1-5.1-11v-1.05A13.45,13.45,0,0,1,78.75,381q4.81-4.14,15.08-4.15h1q10.44,0,16.29,4.7V366.2Zm-13.51,26.12q0-3.1-3.32-5.37t-9-2.27h-.3q-5.85,0-8.32,2.16a7,7,0,0,0-2.48,5.48v.22a6.89,6.89,0,0,0,2.72,5.39q2.72,2.29,8.2,2.3h.3q5.67,0,8.93-2.3t3.26-5.39v-.22Z" transform="translate(-19.17 -366.2)"/><path class="cls-1" d="M162.29,407.42v-5.14l-1.39,1.19c-.24.2-.93.67-2.08,1.41a16.14,16.14,0,0,1-3.2,1.63,31.93,31.93,0,0,1-4,1.05,24.66,24.66,0,0,1-5.13.52h-.48c-5.14,0-9-1.18-11.58-3.56a11,11,0,0,1-3.86-8.33V377.66h13.57v14.71a7.16,7.16,0,0,0,2.08,5.42q2.08,2,6.25,2a10.51,10.51,0,0,0,7-2.22,7.28,7.28,0,0,0,2.63-5.86v-14h13.45v29.76Z" transform="translate(-19.17 -366.2)"/><path class="cls-1" d="M296.29,397.91v.34a9.08,9.08,0,0,1-.82,4,8.73,8.73,0,0,1-2.86,3.21,15.47,15.47,0,0,1-6.14,2.32,53.06,53.06,0,0,1-10.09.81H199.71q-19.41,0-19.41-10.67v-.33h12.9q0,3.75,6.55,4.05c.38,0,75.14,0,75.56,0h.11a23,23,0,0,0,5.08-.44,4.56,4.56,0,0,0,2.27-1,2.15,2.15,0,0,0,.45-1.39v-.12a2,2,0,0,0-1.26-1.9,15.89,15.89,0,0,0-5.36-.72L199.92,396l-3.08-.06a37.25,37.25,0,0,1-8-.95,13,13,0,0,1-5.05-2.24,8.66,8.66,0,0,1-2.44-2.9,7.46,7.46,0,0,1-.73-3.3v-.33a9.94,9.94,0,0,1,.36-2.79,6.63,6.63,0,0,1,1.57-2.52,9.31,9.31,0,0,1,3.23-2.12,25.6,25.6,0,0,1,5.55-1.4,54.74,54.74,0,0,1,8.36-.55h76.61q18.9,0,18.91,9.43v.4H282.43a2.72,2.72,0,0,0-1.23-1.93,5.47,5.47,0,0,0-2.27-.84,19.33,19.33,0,0,0-2.83-.29l-75.5,0h0a20.73,20.73,0,0,0-5.73.51,1.8,1.8,0,0,0-1.45,1.73V386a1.86,1.86,0,0,0,1.34,1.7,15.35,15.35,0,0,0,5,.7l77.12.06,2.63.05A39.56,39.56,0,0,1,290,389.76q3.75,1.17,5,3A9,9,0,0,1,296.29,397.91Z" transform="translate(-19.17 -366.2)"/><path class="cls-1" d="M314.4,377.38v4.26q6.21-5,16.47-5H332a32.7,32.7,0,0,1,9.25,1.16,14.78,14.78,0,0,1,6.1,3.27,13.19,13.19,0,0,1,3.22,4.7,15.58,15.58,0,0,1,1,5.81v1a14.94,14.94,0,0,1-1.06,5.7,14.23,14.23,0,0,1-3.31,4.81,15.25,15.25,0,0,1-6.25,3.46,31.66,31.66,0,0,1-9.41,1.24h-1a28.19,28.19,0,0,1-10.47-1.71,17.52,17.52,0,0,1-5.7-3.21v14.61H301V377.38Zm0,14.88q0,3.11,3.14,5.42t8.87,2.33h.3q5.91,0,8.5-2.27a7,7,0,0,0,2.6-5.48V392a6.92,6.92,0,0,0-2.57-5.5q-2.57-2.19-8.53-2.19h-.3c-4,0-6.93.76-9,2.27A6.63,6.63,0,0,0,314.4,392Z" transform="translate(-19.17 -366.2)"/><path class="cls-1" d="M400.8,399.9v8.31H390.46c-2.78,0-4.4-1.41-4.86-4.21a13,13,0,0,1-4.85,3.27,23.87,23.87,0,0,1-9.37,1.51h-.74q-7.26,0-10.77-2.85a8.81,8.81,0,0,1-3.52-7.16v-.4a7.34,7.34,0,0,1,3-6.37q3-2.17,9.91-2.79l14.06-1.31c1.29-.15,1.94-.68,1.94-1.59a1.83,1.83,0,0,0-.37-1.2,4.75,4.75,0,0,0-2.26-.88,26,26,0,0,0-5.37-.43l-20.91,0v-7.09h22.23a52.61,52.61,0,0,1,8.79.63,22.32,22.32,0,0,1,5.6,1.53,7.88,7.88,0,0,1,3,2.36,7,7,0,0,1,1.32,2.59,14.73,14.73,0,0,1,.22,2.79v11.72c0,1,.54,1.53,1.6,1.53Zm-15.54-6.25-12.17,1.87a11.34,11.34,0,0,0-3.6,1,2,2,0,0,0-1,1.85v.05a3,3,0,0,0,1.32,2.45,7,7,0,0,0,4.28,1,13.66,13.66,0,0,0,8.06-2.23q3.13-2.21,3.14-5.06Z" transform="translate(-19.17 -366.2)"/><path class="cls-1" d="M417.82,391.64V392a7.8,7.8,0,0,0,2.3,5.73q2.29,2.31,7.29,2.31h71.73c5.15-.21,8.16-2,9-5.52H521v.12a14,14,0,0,1-.34,3,11.3,11.3,0,0,1-1.63,3.46,11.69,11.69,0,0,1-3.45,3.41,20.87,20.87,0,0,1-6.25,2.46,39.46,39.46,0,0,1-9.59,1H426.06a35.34,35.34,0,0,1-8.78-1,19.19,19.19,0,0,1-6.08-2.51,13.86,13.86,0,0,1-3.7-3.66,12.81,12.81,0,0,1-2-4.13,17.48,17.48,0,0,1-.5-4.19v-1.12a17.11,17.11,0,0,1,.5-4.16,12.67,12.67,0,0,1,1.94-4.05,13.19,13.19,0,0,1,3.7-3.54,19.9,19.9,0,0,1,6.08-2.43,36.08,36.08,0,0,1,8.75-1h73.78a39.41,39.41,0,0,1,9.43,1,20.39,20.39,0,0,1,6.19,2.43,12.94,12.94,0,0,1,3.51,3.35,10.61,10.61,0,0,1,1.71,3.41,12.45,12.45,0,0,1,.37,2.93v.17H508.14q-1.23-5.16-9.18-5.41H427.41q-5.06,0-7.32,2.1A6.9,6.9,0,0,0,417.82,391.64Z" transform="translate(-19.17 -366.2)"/><path class="cls-1" d="M575.17,399.62a8.29,8.29,0,0,1-1.87,3,12.92,12.92,0,0,1-3.74,2.79,24.34,24.34,0,0,1-6.48,2,52.78,52.78,0,0,1-9.74.8H549.9A41.79,41.79,0,0,1,539,406.92a17.93,17.93,0,0,1-7.12-3.45,14.25,14.25,0,0,1-3.7-4.82A13.56,13.56,0,0,1,527,393v-1.21a14.18,14.18,0,0,1,1.08-5.59,13.69,13.69,0,0,1,3.53-4.73,17.15,17.15,0,0,1,7-3.43,41.71,41.71,0,0,1,10.89-1.25h3.68q22.56,0,22.56,16.05v2H540.25q1.32,5.82,11.46,5.81h.06a27.19,27.19,0,0,0,4.49-.33,14,14,0,0,0,3-.8,7.09,7.09,0,0,0,1.78-1.05,5.25,5.25,0,0,0,.93-.94,1.74,1.74,0,0,0,.31-.69h13.26v.05A9.21,9.21,0,0,1,575.17,399.62Zm-23.88-16c-6.12,0-9.71,1.68-10.8,5H562.2q-1.44-5-10.85-5Z" transform="translate(-19.17 -366.2)"/></svg>